ply
format ascii 1.0
comment Created by Blender 2.71 (sub 0) - www.blender.org, source file: 'Rock1.blend'
element vertex 165
property float x
property float y
property float z
property float nx
property float ny
property float nz
property float s
property float t
element face 96
property list uchar uint vertex_indices
end_header
-0.183939 -0.131390 0.370968 -0.982757 -0.184027 -0.016358 0.137636 0.563411
-0.144594 -0.256065 0.354469 -0.842067 -0.524277 0.126560 0.058285 0.569867
-0.158333 -0.211731 0.467712 -0.831477 -0.513565 0.211707 0.082613 0.506661
-0.194604 -0.101920 0.486908 -0.969207 -0.191534 0.154576 0.152906 0.498683
0.158092 -0.154872 0.418499 0.970061 -0.136937 0.200415 0.155028 0.344089
0.135495 -0.143381 0.527278 0.850612 -0.175481 0.495590 0.206316 0.378186
0.115799 -0.245325 0.490192 0.745079 -0.514267 0.424635 0.155630 0.402329
0.119625 -0.294552 0.399242 0.686331 -0.614643 0.388745 0.099783 0.387655
0.143201 -0.217599 0.016645 0.624653 -0.305032 -0.718833 0.896175 0.282885
0.197279 -0.200100 0.091105 0.896634 -0.268929 -0.351726 0.854473 0.349296
0.119393 -0.335797 0.163986 0.482498 -0.828120 -0.285257 0.794976 0.248970
0.052827 -0.316426 0.046931 0.317728 -0.872250 -0.371685 0.870663 0.174892
0.022476 -0.308851 0.463292 -0.118534 -0.918912 0.376171 0.949240 0.587705
0.119625 -0.294552 0.399242 0.686331 -0.614643 0.388745 0.944083 0.694636
0.115799 -0.245325 0.490192 0.745079 -0.514267 0.424635 0.905653 0.682602
0.045380 -0.270195 0.540981 0.256630 -0.687704 0.679098 0.916733 0.604517
0.042092 0.155225 0.638318 0.267891 0.275674 0.923154 0.336809 0.082005
0.123224 0.159012 0.566020 0.808679 0.229072 0.541795 0.369246 0.000842
0.125085 0.328644 0.415804 0.669729 0.608203 0.426008 0.489191 0.000000
0.061995 0.317524 0.474269 0.085025 0.811243 0.578478 0.460672 0.063535
-0.104024 0.249106 0.406426 -0.718101 0.690725 0.084964 0.485748 0.254952
-0.139934 0.155729 0.306688 -0.872341 0.481948 -0.081881 0.512673 0.310590
-0.160703 0.185406 0.387211 -0.790918 0.589068 -0.165532 0.481603 0.323059
-0.127919 0.225283 0.473502 -0.646962 0.744041 0.166662 0.447322 0.276247
-0.175994 0.132371 0.311312 -0.921476 0.367046 -0.126926 0.276846 0.583529
-0.190767 0.008294 0.335713 -0.997070 0.031922 -0.069063 0.215363 0.578539
-0.201121 0.026277 0.472570 -0.997650 0.017853 0.065950 0.223692 0.502410
-0.187896 0.119142 0.422179 -0.956572 0.286721 -0.052004 0.270084 0.523882
-0.168523 0.145874 0.109586 -0.978240 0.187567 -0.088412 0.288525 0.695621
-0.176313 0.024635 0.123833 -0.981567 0.022675 -0.189734 0.226456 0.694739
-0.188296 0.013363 0.233249 -0.996277 0.064119 -0.057314 0.220811 0.635843
-0.156394 0.118111 0.194628 -0.956572 0.289041 0.037507 0.266533 0.646047
-0.175550 -0.118268 0.145551 -0.964751 -0.140782 -0.222327 0.149628 0.688747
-0.144339 -0.264205 0.180139 -0.846400 -0.495315 -0.195410 0.060049 0.668982
-0.147900 -0.272615 0.268587 -0.853786 -0.520493 -0.009217 0.053708 0.620010
-0.181999 -0.132197 0.254120 -0.987610 -0.151921 -0.038942 0.140662 0.629249
0.191554 -0.191585 0.194386 0.983581 -0.179388 0.018403 0.046020 0.277128
0.176320 -0.139929 0.313397 0.984100 -0.084292 0.156255 0.115533 0.299946
0.126942 -0.383750 0.340811 0.514786 -0.808283 0.285745 0.042023 0.402498
0.122714 -0.398400 0.277976 0.391614 -0.914914 -0.097537 0.011393 0.383384
0.194226 0.158971 0.092313 0.987426 0.149815 -0.050172 0.133867 0.094672
0.164013 0.220560 0.253828 0.982238 0.172338 0.073977 0.226136 0.127633
0.180207 0.056283 0.259351 0.990600 0.050295 0.127140 0.165692 0.199396
0.193883 0.064501 0.134682 0.999664 0.018342 0.018097 0.116225 0.149680
0.152541 0.197290 0.388058 0.982513 0.121708 0.140782 0.273683 0.187557
0.123224 0.159012 0.566020 0.808679 0.229072 0.541795 0.335575 0.267841
0.140334 -0.002173 0.527950 0.890561 -0.019776 0.454360 0.258354 0.321530
0.162934 0.002501 0.402384 0.986785 0.027955 0.159459 0.206193 0.274302
-0.044919 -0.165661 -0.055434 -0.256752 -0.140812 -0.956145 0.422948 0.654063
0.050412 -0.223674 -0.027214 0.289163 -0.259285 -0.921476 0.520455 0.684734
0.014059 -0.306465 -0.006119 0.062410 -0.744896 -0.664235 0.477461 0.726331
-0.054258 -0.291239 0.017871 -0.480514 -0.679708 -0.554155 0.404599 0.713241
-0.059247 0.189892 -0.051659 -0.238136 0.190039 -0.952422 0.422729 0.459207
0.043672 0.152996 -0.027865 -0.002197 -0.031343 -0.999481 0.529375 0.479105
0.061823 -0.037495 -0.005388 0.268777 -0.039613 -0.962371 0.539575 0.580737
-0.035481 0.014171 -0.036837 -0.101321 -0.021668 -0.994598 0.439840 0.553878
0.112906 0.156835 -0.055270 0.203314 -0.092959 -0.974670 0.744126 0.814485
0.178825 0.131866 -0.005383 0.845759 -0.023713 -0.533006 0.672331 0.787452
0.179246 -0.010624 0.051897 0.889126 -0.101138 -0.446333 0.683844 0.711964
0.141782 -0.043812 0.030999 0.509079 -0.092441 -0.855708 0.731678 0.707183
-0.093795 -0.298779 0.397638 -0.243934 -0.932127 0.267525 0.016271 0.536299
-0.055025 -0.286059 0.477000 -0.351817 -0.847713 0.396985 0.006598 0.482318
-0.058639 -0.189343 0.611482 -0.140843 -0.443709 0.885006 0.054401 0.402498
-0.132169 -0.170959 0.586400 -0.631611 -0.388165 0.671072 0.090851 0.431859
-0.073314 -0.310429 0.131898 -0.383007 -0.907712 -0.171270 0.857058 0.070133
-0.006006 -0.321349 0.100643 -0.105686 -0.988220 -0.110416 0.855242 0.125920
-0.012924 -0.302886 0.190692 -0.098300 -0.994629 -0.032350 0.818683 0.137473
-0.087632 -0.333845 0.270777 -0.218268 -0.973479 0.068056 0.786060 0.070157
0.046041 -0.312868 0.138151 -0.208716 -0.960448 -0.184301 0.829103 0.182611
0.122714 -0.398400 0.277976 0.391614 -0.914914 -0.097537 0.720806 0.251159
0.126942 -0.383750 0.340811 0.514786 -0.808283 0.285745 0.693981 0.268226
0.023245 -0.355400 0.267558 -0.406934 -0.912839 0.032868 0.758736 0.168010
-0.168472 0.179250 0.532288 -0.776116 0.501694 0.381939 0.408067 0.318081
-0.090508 0.160735 0.632983 -0.313303 0.361217 0.878262 0.348488 0.225548
-0.041079 0.251446 0.510229 -0.309458 0.817255 0.486068 0.431026 0.176751
-0.148597 -0.108169 0.579944 -0.690573 -0.137455 0.710074 0.834672 0.401576
-0.056263 -0.101821 0.611387 -0.040345 -0.063295 0.997162 0.821728 0.494375
-0.063552 0.014203 0.611133 -0.145756 -0.078402 0.986175 0.758928 0.488146
-0.189860 0.056694 0.575043 -0.807947 0.032685 0.588336 0.747834 0.361119
0.071086 -0.165651 0.577842 0.471328 -0.208991 0.856807 0.853441 0.628842
0.135495 -0.143381 0.527278 0.850612 -0.175481 0.495590 0.844101 0.700647
0.140334 -0.002173 0.527950 0.890561 -0.019776 0.454360 0.766741 0.707183
0.081262 -0.010055 0.589818 0.457930 -0.093142 0.884060 0.766456 0.640000
0.076935 0.380817 0.317177 -0.083224 0.960051 0.267098 0.554998 0.057463
-0.027752 0.311105 0.420133 -0.452101 0.831874 0.321726 0.491069 0.166304
0.087721 0.339072 0.080672 0.208716 0.890988 -0.403119 0.661203 0.071636
-0.006592 0.331956 0.125282 -0.442701 0.849300 -0.287545 0.642437 0.169965
-0.049451 0.340811 0.289349 -0.564959 0.823481 0.051302 0.565426 0.199969
0.069783 0.406427 0.223491 0.017365 0.986084 -0.165166 0.608937 0.072162
-0.081417 0.265827 0.126907 -0.632069 0.769189 -0.093814 0.628288 0.255903
-0.139261 0.227767 0.130406 -0.869289 0.494247 0.002411 0.619708 0.321108
-0.133386 0.173802 0.220666 -0.899838 0.433424 0.048799 0.560004 0.310321
-0.109828 0.273705 0.278501 -0.835841 0.548387 0.024079 0.556413 0.271543
0.050412 -0.223674 -0.027214 0.289163 -0.259285 -0.921476 0.934356 0.187628
0.014059 -0.306465 -0.006119 0.062410 -0.744896 -0.664235 0.907061 0.133559
0.141782 -0.043812 0.030999 0.509079 -0.092441 -0.855708 0.622627 0.581780
0.143201 -0.217599 0.016645 0.624653 -0.305032 -0.718833 0.617335 0.678426
0.179246 -0.010624 0.051897 0.889126 -0.101138 -0.446333 0.662917 0.562066
0.197279 -0.200100 0.091105 0.896634 -0.268929 -0.351726 0.672331 0.661064
-0.055025 -0.286059 0.477000 -0.351817 -0.847713 0.396985 0.939564 0.506329
-0.058639 -0.189343 0.611482 -0.140843 -0.443709 0.885006 0.869574 0.490922
-0.012924 -0.302886 0.190692 -0.098300 -0.994629 -0.032350 0.791582 0.866218
0.023245 -0.355400 0.267558 -0.406934 -0.912839 0.032868 0.744126 0.821215
0.022476 -0.308851 0.463292 -0.118534 -0.918912 0.376171 0.752056 0.707183
-0.055025 -0.286059 0.477000 -0.351817 -0.847713 0.396985 0.791426 0.711743
0.023245 -0.355400 0.267558 -0.406934 -0.912839 0.032868 1.000000 0.606532
0.126942 -0.383750 0.340811 0.514786 -0.808283 0.285745 0.999879 0.706758
0.042092 0.155225 0.638318 0.267891 0.275674 0.923154 0.672331 0.596657
-0.090508 0.160735 0.632983 -0.313303 0.361217 0.878262 0.677773 0.459778
0.123224 0.159012 0.566020 0.808679 0.229072 0.541795 0.674914 0.687648
-0.109828 0.273705 0.278501 -0.835841 0.548387 0.024079 0.387737 0.801509
-0.133386 0.173802 0.220666 -0.899838 0.433424 0.048799 0.336809 0.833560
-0.139934 0.155729 0.306688 -0.872341 0.481948 -0.081881 0.336920 0.785916
-0.104024 0.249106 0.406426 -0.718101 0.690725 0.084964 0.384519 0.726331
-0.175994 0.132371 0.311312 -0.921476 0.367046 -0.126926 0.506205 0.350977
-0.187896 0.119142 0.422179 -0.956572 0.286721 -0.052004 0.448079 0.354288
-0.156394 0.118111 0.194628 -0.956572 0.289041 0.037507 0.559475 0.342029
-0.168523 0.145874 0.109586 -0.978240 0.187567 -0.088412 0.609960 0.361119
-0.123270 0.239137 0.036648 -0.764428 0.560564 -0.318339 0.324683 0.722893
-0.136078 0.141492 0.002888 -0.791162 0.102939 -0.602863 0.278588 0.749240
-0.139261 0.227767 0.130406 -0.869289 0.494247 0.002411 0.320949 0.673747
-0.128743 0.032829 0.002927 -0.755364 -0.043275 -0.653829 0.218381 0.752553
-0.122749 -0.104313 0.011729 -0.787835 -0.115604 -0.604907 0.143231 0.752483
-0.118138 -0.236630 0.073040 -0.817072 -0.408124 -0.407147 0.069266 0.722735
0.191554 -0.191585 0.194386 0.983581 -0.179388 0.018403 0.808347 0.361119
0.179246 -0.010624 0.051897 0.889126 -0.101138 -0.446333 0.056221 0.145884
0.197279 -0.200100 0.091105 0.896634 -0.268929 -0.351726 0.000000 0.241327
0.178825 0.131866 -0.005383 0.845759 -0.023713 -0.533006 0.085645 0.065345
0.151184 0.227043 -0.024397 0.758538 0.350200 -0.549486 0.116277 0.014773
0.146924 0.288301 0.094131 0.832942 0.520707 -0.187109 0.187902 0.035191
0.132056 0.351601 0.240938 0.832301 0.548204 -0.082034 0.273048 0.064123
0.129851 0.399536 0.303228 0.643117 0.756157 0.120670 0.316518 0.068429
0.125085 0.328644 0.415804 0.669729 0.608203 0.426008 0.336809 0.140426
-0.122749 -0.104313 0.011729 -0.787835 -0.115604 -0.604907 0.340137 0.610197
-0.118138 -0.236630 0.073040 -0.817072 -0.408124 -0.407147 0.336809 0.674909
-0.128743 0.032829 0.002927 -0.755364 -0.043275 -0.653829 0.339988 0.536299
-0.136078 0.141492 0.002888 -0.791162 0.102939 -0.602863 0.336833 0.476818
-0.123270 0.239137 0.036648 -0.764428 0.560564 -0.318339 0.353162 0.419686
-0.054513 0.285607 0.002965 -0.388470 0.739525 -0.549699 0.429528 0.400325
0.028413 0.270995 -0.014625 -0.210334 0.625446 -0.751366 0.517650 0.412671
0.112906 0.156835 -0.055270 0.203314 -0.092959 -0.974670 0.604166 0.482239
0.092239 0.262151 -0.049093 0.102542 0.500931 -0.859371 0.586459 0.423461
0.151184 0.227043 -0.024397 0.758538 0.350200 -0.549486 0.646477 0.441109
0.178825 0.131866 -0.005383 0.845759 -0.023713 -0.533006 0.670954 0.491413
-0.087632 -0.333845 0.270777 -0.218268 -0.973479 0.068056 0.000000 0.608449
-0.055025 -0.286059 0.477000 -0.351817 -0.847713 0.396985 0.694133 0.143704
-0.093795 -0.298779 0.397638 -0.243934 -0.932127 0.267525 0.736508 0.092307
-0.073314 -0.310429 0.131898 -0.383007 -0.907712 -0.171270 0.012308 0.682984
-0.054258 -0.291239 0.017871 -0.480514 -0.679708 -0.554155 0.019832 0.742597
-0.054258 -0.291239 0.017871 -0.480514 -0.679708 -0.554155 0.913859 0.076969
-0.189860 0.056694 0.575043 -0.807947 0.032685 0.588336 0.232244 0.440506
-0.168472 0.179250 0.532288 -0.776116 0.501694 0.381939 0.291247 0.454530
-0.168472 0.179250 0.532288 -0.776116 0.501694 0.381939 0.685316 0.388716
-0.148597 -0.108169 0.579944 -0.690573 -0.137455 0.710074 0.130148 0.436240
-0.132169 -0.170959 0.586400 -0.631611 -0.388165 0.671072 0.867108 0.417288
0.129851 0.399536 0.303228 0.643117 0.756157 0.120670 0.563922 0.000091
0.132056 0.351601 0.240938 0.832301 0.548204 -0.082034 0.582099 0.007382
0.087721 0.339072 0.080672 0.208716 0.890988 -0.403119 0.207942 0.000000
0.069783 0.406427 0.223491 0.017365 0.986084 -0.165166 0.293309 0.025246
0.087721 0.339072 0.080672 0.208716 0.890988 -0.403119 0.579472 0.365264
0.146924 0.288301 0.094131 0.832942 0.520707 -0.187109 0.639569 0.392860
-0.006592 0.331956 0.125282 -0.442701 0.849300 -0.287545 0.477201 0.361119
0.028413 0.270995 -0.014625 -0.210334 0.625446 -0.751366 0.693981 0.150197
-0.054513 0.285607 0.002965 -0.388470 0.739525 -0.549699 0.693822 0.237100
-0.123270 0.239137 0.036648 -0.764428 0.560564 -0.318339 0.668575 0.311882
4 0 1 2 3
4 4 5 6 7
4 8 9 10 11
4 12 13 14 15
4 16 17 18 19
4 20 21 22 23
4 24 25 26 27
4 28 29 30 31
4 32 33 34 35
4 36 37 38 39
4 40 41 42 43
4 44 45 46 47
4 48 49 50 51
4 52 53 54 55
4 56 57 58 59
4 60 61 62 63
4 64 65 66 67
4 68 69 70 71
4 72 73 74 23
4 75 76 77 78
4 79 80 81 82
4 83 84 74 19
4 85 86 87 88
4 89 90 91 92
4 25 0 3 26
4 30 35 0 25
4 35 34 1 0
4 37 4 7 38
4 42 47 4 37
4 47 46 5 4
4 93 8 11 94
4 54 95 96 49
4 95 97 98 96
4 99 12 15 100
4 101 102 103 104
4 105 106 13 12
4 73 16 19 74
4 77 82 107 108
4 82 81 109 107
4 84 20 23 74
4 87 92 20 84
4 110 111 112 113
4 21 114 115 22
4 91 116 114 21
4 31 30 25 24
4 90 117 116 91
4 118 119 28 120
4 119 121 29 28
4 29 32 35 30
4 121 122 32 29
4 122 123 33 32
4 9 124 69 10
4 125 43 36 126
4 43 42 37 36
4 127 40 43 125
4 128 129 40 127
4 129 130 41 40
4 41 44 47 42
4 130 131 44 41
4 131 132 45 44
4 133 48 51 134
4 135 55 48 133
4 55 54 49 48
4 136 52 55 135
4 137 138 52 136
4 138 139 53 52
4 53 140 95 54
4 139 141 140 53
4 141 142 143 140
4 1 60 63 2
4 34 144 60 1
4 67 66 145 146
4 33 147 144 34
4 123 148 147 33
4 149 94 65 64
4 65 68 71 66
4 94 11 68 65
4 11 10 69 68
4 115 72 23 22
4 26 150 151 27
4 78 77 108 152
4 3 153 150 26
4 2 63 153 3
4 154 100 76 75
4 76 79 82 77
4 100 15 79 76
4 15 14 80 79
4 155 83 19 18
4 156 88 83 155
4 88 87 84 83
4 129 157 158 130
4 142 141 159 160
4 141 139 161 159
4 86 89 92 87
4 162 163 89 86
4 163 164 90 89
