ply
format ascii 1.0
comment Created by Blender 2.71 (sub 0) - www.blender.org, source file: 'Rock1.blend'
element vertex 165
property float x
property float y
property float z
property float nx
property float ny
property float nz
property float s
property float t
element face 96
property list uchar uint vertex_indices
end_header
-0.605606 -0.162542 0.060877 -0.199438 -0.184027 -0.962462 0.137636 0.563411
-0.575022 -0.316776 0.103892 -0.308084 -0.524277 -0.793817 0.058285 0.569867
-0.715432 -0.261931 0.118020 -0.388836 -0.513565 -0.764855 0.082613 0.506661
-0.748438 -0.126084 0.079446 -0.363292 -0.191534 -0.911771 0.152906 0.498683
-0.570223 -0.191590 0.486599 0.017090 -0.136937 0.990417 0.155028 0.344089
-0.707647 -0.177375 0.488824 -0.297067 -0.175481 0.938566 0.206316 0.378186
-0.668226 -0.303490 0.454993 -0.250954 -0.514267 0.820063 0.155630 0.402329
-0.557411 -0.364387 0.434947 -0.228828 -0.614643 0.754845 0.099783 0.387655
-0.089223 -0.269190 0.359649 0.838282 -0.305032 0.451888 0.896175 0.282885
-0.164431 -0.247542 0.445114 0.539720 -0.268929 0.797723 0.854473 0.349296
-0.273519 -0.415412 0.370870 0.384106 -0.828120 0.408246 0.794976 0.248970
-0.150286 -0.391448 0.258781 0.432295 -0.872250 0.228523 0.870663 0.174892
-0.661064 -0.382076 0.335057 -0.393017 -0.918912 -0.033204 0.949240 0.587705
-0.557411 -0.364387 0.434947 -0.228828 -0.614643 0.754845 0.944083 0.694636
-0.668226 -0.303490 0.454993 -0.250954 -0.514267 0.820063 0.905653 0.682602
-0.748624 -0.334256 0.383770 -0.606311 -0.687704 0.399243 0.916733 0.604517
-0.867001 0.192027 0.406198 -0.841975 0.275674 0.463759 0.336809 0.082005
-0.757736 0.196712 0.484518 -0.351329 0.229072 0.907773 0.369246 0.000842
-0.575921 0.406562 0.446028 -0.268838 0.608203 0.746849 0.489191 0.000000
-0.663598 0.392806 0.385733 -0.545762 0.811243 0.209784 0.460672 0.063535
-0.626732 0.308167 0.166951 -0.240333 0.690725 -0.681997 0.485748 0.254952
-0.516086 0.192650 0.096559 -0.111301 0.481948 -0.869076 0.512673 0.310590
-0.618910 0.229364 0.093329 -0.011841 0.589068 -0.807978 0.481603 0.323059
-0.714173 0.278695 0.156299 -0.304422 0.744041 -0.594684 0.447322 0.276247
-0.531446 0.163755 0.054290 -0.078158 0.367046 -0.926878 0.276846 0.583529
-0.564905 0.010260 0.043076 -0.151158 0.031922 -0.987976 0.215363 0.578539
-0.732899 0.032507 0.067691 -0.283059 0.017853 -0.958922 0.223692 0.502410
-0.668490 0.147389 0.069989 -0.158940 0.286721 -0.944731 0.270084 0.523882
-0.285937 0.180460 0.008603 -0.128147 0.187567 -0.973846 0.288525 0.695621
-0.305246 0.030476 0.003063 -0.030000 0.022675 -0.999268 0.226456 0.694739
-0.440561 0.016531 0.018272 -0.162450 0.064119 -0.984619 0.220811 0.635843
-0.385294 0.146114 0.046304 -0.246284 0.289041 -0.925077 0.266533 0.646047
-0.331252 -0.146309 0.009874 0.005432 -0.140782 -0.990020 0.149628 0.688747
-0.364536 -0.326845 0.056925 0.005097 -0.495315 -0.868679 0.060049 0.668982
-0.472259 -0.337250 0.076613 -0.178167 -0.520493 -0.835047 0.053708 0.620010
-0.464044 -0.163540 0.031532 -0.178472 -0.151921 -0.972137 0.140662 0.629249
-0.290644 -0.237008 0.466212 0.197638 -0.179388 0.963713 0.046020 0.277128
-0.438421 -0.173104 0.480098 0.063234 -0.084292 0.994415 0.115533 0.299946
-0.484900 -0.474734 0.427933 -0.165929 -0.808283 0.564898 0.042023 0.402498
-0.410205 -0.492857 0.405790 0.181005 -0.914914 0.360698 0.011393 0.383384
-0.166717 0.196662 0.441756 0.265419 0.149815 0.952391 0.133867 0.094672
-0.369859 0.272852 0.449089 0.143132 0.172338 0.974578 0.226136 0.127633
-0.372133 0.069627 0.470133 0.093081 0.050295 0.994385 0.165692 0.199396
-0.217949 0.079794 0.452832 0.201453 0.018342 0.979308 0.116225 0.149680
-0.534985 0.244065 0.471644 0.078005 0.121708 0.989471 0.273683 0.187557
-0.757736 0.196712 0.484518 -0.351329 0.229072 0.907773 0.335575 0.267841
-0.707146 -0.002689 0.494846 -0.248085 -0.019776 0.968505 0.258354 0.321530
-0.549459 0.003094 0.488074 0.060701 0.027955 0.997742 0.206193 0.274302
-0.053238 -0.204937 0.113041 0.876614 -0.140812 -0.460097 0.422948 0.654063
-0.061448 -0.276706 0.235759 0.962462 -0.259285 0.080142 0.520455 0.684734
-0.096768 -0.379124 0.197602 0.661763 -0.744896 -0.084689 0.477461 0.726331
-0.144250 -0.360289 0.121649 0.435316 -0.679708 -0.590289 0.404599 0.713241
-0.061680 0.234914 0.096771 0.877071 0.190039 -0.441115 0.422729 0.459207
-0.062490 0.189270 0.227448 0.974700 -0.031343 -0.221229 0.529375 0.479105
-0.084696 -0.046385 0.255451 0.997894 -0.039613 0.051271 0.539575 0.580737
-0.073125 0.017531 0.129476 0.948180 -0.021668 -0.316904 0.439840 0.553878
-0.010637 0.194019 0.303582 0.995544 -0.092959 -0.015259 0.744126 0.814485
-0.052974 0.163130 0.396674 0.705435 -0.023713 0.708335 0.672331 0.787452
-0.121997 -0.013143 0.412716 0.630360 -0.101138 0.769646 0.683844 0.711964
-0.106932 -0.054200 0.361830 0.946501 -0.092441 0.309091 0.731678 0.707183
-0.613351 -0.369617 0.176913 -0.314493 -0.932127 -0.179357 0.016271 0.536299
-0.698627 -0.353881 0.245232 -0.464431 -0.847713 -0.256233 0.006598 0.482318
-0.861927 -0.234235 0.277338 -0.894375 -0.443709 0.056551 0.054401 0.402498
-0.851594 -0.211492 0.181786 -0.793207 -0.388165 -0.469131 0.090851 0.431859
-0.287049 -0.384028 0.129570 0.083163 -0.907712 -0.411237 0.857058 0.070133
-0.231071 -0.397537 0.202335 0.084567 -0.988220 -0.127323 0.855242 0.125920
-0.341637 -0.374697 0.218405 0.010010 -0.994629 -0.103000 0.818683 0.137473
-0.458558 -0.412997 0.149950 -0.114261 -0.973479 -0.198035 0.786060 0.070157
-0.262228 -0.387046 0.275327 0.134068 -0.960448 -0.244026 0.829103 0.182611
-0.410205 -0.492857 0.405790 0.181005 -0.914914 0.360698 0.720806 0.251159
-0.484900 -0.474734 0.427933 -0.165929 -0.808283 0.564898 0.693981 0.268226
-0.424604 -0.439662 0.282906 -0.121281 -0.912839 -0.389813 0.758736 0.168010
-0.796125 0.221749 0.123293 -0.542772 0.501694 -0.673513 0.408067 0.318081
-0.896521 0.198843 0.244703 -0.925565 0.361217 -0.113163 0.348488 0.225548
-0.734952 0.311062 0.271074 -0.542100 0.817255 -0.195379 0.431026 0.176751
-0.848256 -0.133815 0.160206 -0.844172 -0.137455 -0.518113 0.834672 0.401576
-0.861168 -0.125962 0.280180 -0.981750 -0.063295 0.179205 0.821728 0.494375
-0.862838 0.017571 0.271313 -0.994171 -0.078402 0.073946 0.758928 0.488146
-0.853530 0.070136 0.109073 -0.751122 0.032685 -0.659322 0.747834 0.361119
-0.786145 -0.204925 0.424794 -0.732658 -0.208991 0.647694 0.853441 0.628842
-0.707647 -0.177375 0.488824 -0.297067 -0.175481 0.938566 0.844101 0.700647
-0.707146 -0.002689 0.494846 -0.248085 -0.019776 0.968505 0.766741 0.707183
-0.797840 -0.012439 0.440323 -0.762169 -0.093142 0.640584 0.766456 0.640000
-0.469936 0.471105 0.361166 -0.278848 0.960051 -0.022645 0.554998 0.057463
-0.622593 0.384865 0.262729 -0.413007 0.831874 -0.370586 0.491069 0.166304
-0.181548 0.419463 0.310048 0.439070 0.890988 0.115268 0.661203 0.071636
-0.260969 0.410659 0.208309 0.183508 0.849300 -0.494980 0.642437 0.169965
-0.470620 0.421614 0.201071 -0.173894 0.823481 -0.539964 0.565426 0.199969
-0.358795 0.502787 0.327127 0.164983 0.986084 -0.019257 0.608937 0.072162
-0.283221 0.328851 0.118436 -0.046999 0.769189 -0.637257 0.628288 0.255903
-0.303131 0.281769 0.049567 -0.192938 0.494247 -0.847621 0.619708 0.321108
-0.410481 0.215008 0.081135 -0.244850 0.433424 -0.867244 0.560004 0.310321
-0.473901 0.338598 0.125254 -0.206732 0.548387 -0.810236 0.556413 0.271543
-0.061448 -0.276706 0.235759 0.962462 -0.259285 0.080142 0.934356 0.187628
-0.096768 -0.379124 0.197602 0.661763 -0.744896 -0.084689 0.907061 0.133559
-0.106932 -0.054200 0.361830 0.946501 -0.092441 0.309091 0.622627 0.581780
-0.089223 -0.269190 0.359649 0.838282 -0.305032 0.451888 0.617335 0.678426
-0.121997 -0.013143 0.412716 0.630360 -0.101138 0.769646 0.662917 0.562066
-0.164431 -0.247542 0.445114 0.539720 -0.268929 0.797723 0.672331 0.661064
-0.698627 -0.353881 0.245232 -0.464431 -0.847713 -0.256233 0.939564 0.506329
-0.861927 -0.234235 0.277338 -0.894375 -0.443709 0.056551 0.869574 0.490922
-0.341637 -0.374697 0.218405 0.010010 -0.994629 -0.103000 0.791582 0.866218
-0.424604 -0.439662 0.282906 -0.121281 -0.912839 -0.389813 0.744126 0.821215
-0.661064 -0.382076 0.335057 -0.393017 -0.918912 -0.033204 0.752056 0.707183
-0.698627 -0.353881 0.245232 -0.464431 -0.847713 -0.256233 0.791426 0.711743
-0.424604 -0.439662 0.282906 -0.121281 -0.912839 -0.389813 1.000000 0.606532
-0.484900 -0.474734 0.427933 -0.165929 -0.808283 0.564898 0.999879 0.706758
-0.867001 0.192027 0.406198 -0.841975 0.275674 0.463759 0.672331 0.596657
-0.896521 0.198843 0.244703 -0.925565 0.361217 -0.113163 0.677773 0.459778
-0.757736 0.196712 0.484518 -0.351329 0.229072 0.907773 0.674914 0.687648
-0.473901 0.338598 0.125254 -0.206732 0.548387 -0.810236 0.387737 0.801509
-0.410481 0.215008 0.081135 -0.244850 0.433424 -0.867244 0.336809 0.833560
-0.516086 0.192650 0.096559 -0.111301 0.481948 -0.869076 0.336920 0.785916
-0.626732 0.308167 0.166951 -0.240333 0.690725 -0.681997 0.384519 0.726331
-0.531446 0.163755 0.054290 -0.078158 0.367046 -0.926878 0.506205 0.350977
-0.668490 0.147389 0.069989 -0.158940 0.286721 -0.944731 0.448079 0.354288
-0.385294 0.146114 0.046304 -0.246284 0.289041 -0.925077 0.559475 0.342029
-0.285937 0.180460 0.008603 -0.128147 0.187567 -0.973846 0.609960 0.361119
-0.185628 0.295834 0.043443 0.143040 0.560564 -0.815638 0.324683 0.722893
-0.148354 0.175039 0.018828 0.414777 0.102939 -0.904050 0.278588 0.749240
-0.303131 0.281769 0.049567 -0.192938 0.494247 -0.847621 0.320949 0.673747
-0.146412 0.040612 0.027693 0.472335 -0.043275 -0.880337 0.218381 0.752553
-0.155410 -0.129044 0.037315 0.417493 -0.115604 -0.901273 0.143231 0.752483
-0.228162 -0.292733 0.059506 0.218146 -0.408124 -0.886471 0.069266 0.722735
-0.290644 -0.237008 0.466212 0.197638 -0.179388 0.963713 0.808347 0.361119
-0.121997 -0.013143 0.412716 0.630360 -0.101138 0.769646 0.056221 0.145884
-0.164431 -0.247542 0.445114 0.539720 -0.268929 0.797723 0.000000 0.241327
-0.052974 0.163130 0.396674 0.705435 -0.023713 0.708335 0.085645 0.065345
-0.037520 0.280873 0.358156 0.702414 0.350200 0.619617 0.116277 0.014773
-0.181738 0.356655 0.385156 0.365154 0.520707 0.771661 0.187902 0.035191
-0.362967 0.434962 0.407022 0.262490 0.548204 0.794061 0.273048 0.064123
-0.438749 0.494262 0.421252 0.023225 0.756157 0.653920 0.316518 0.068429
-0.575921 0.406562 0.446028 -0.268838 0.608203 0.746849 0.336809 0.140426
-0.155410 -0.129044 0.037315 0.417493 -0.115604 -0.901273 0.340137 0.610197
-0.228162 -0.292733 0.059506 0.218146 -0.408124 -0.886471 0.336809 0.674909
-0.146412 0.040612 0.027693 0.472335 -0.043275 -0.880337 0.339988 0.536299
-0.148354 0.175039 0.018828 0.414777 0.102939 -0.904050 0.336833 0.476818
-0.185628 0.295834 0.043443 0.143040 0.560564 -0.815638 0.353162 0.419686
-0.126327 0.353322 0.117299 0.451155 0.739525 -0.499527 0.429528 0.400325
-0.082608 0.335246 0.212621 0.686972 0.625446 -0.369945 0.517650 0.412671
-0.010637 0.194019 0.303582 0.995544 -0.092959 -0.015259 0.604166 0.482239
-0.023697 0.324305 0.280312 0.860958 0.500931 -0.088290 0.586459 0.423461
-0.037520 0.280873 0.358156 0.702414 0.350200 0.619617 0.646477 0.441109
-0.052974 0.163130 0.396674 0.705435 -0.023713 0.708335 0.670954 0.491413
-0.458558 -0.412997 0.149950 -0.114261 -0.973479 -0.198035 0.000000 0.608449
-0.698627 -0.353881 0.245232 -0.464431 -0.847713 -0.256233 0.694133 0.143704
-0.613351 -0.369617 0.176913 -0.314493 -0.932127 -0.179357 0.736508 0.092307
-0.287049 -0.384028 0.129570 0.083163 -0.907712 -0.411237 0.012308 0.682984
-0.144250 -0.360289 0.121649 0.435316 -0.679708 -0.590289 0.019832 0.742597
-0.144250 -0.360289 0.121649 0.435316 -0.679708 -0.590289 0.913859 0.076969
-0.853530 0.070136 0.109073 -0.751122 0.032685 -0.659322 0.232244 0.440506
-0.796125 0.221749 0.123293 -0.542772 0.501694 -0.673513 0.291247 0.454530
-0.796125 0.221749 0.123293 -0.542772 0.501694 -0.673513 0.685316 0.388716
-0.848256 -0.133815 0.160206 -0.844172 -0.137455 -0.518113 0.130148 0.436240
-0.851594 -0.211492 0.181786 -0.793207 -0.388165 -0.469131 0.867108 0.417288
-0.438749 0.494262 0.421252 0.023225 0.756157 0.653920 0.563922 0.000091
-0.362967 0.434962 0.407022 0.262490 0.548204 0.794061 0.582099 0.007382
-0.181548 0.419463 0.310048 0.439070 0.890988 0.115268 0.207942 0.000000
-0.358795 0.502787 0.327127 0.164983 0.986084 -0.019257 0.293309 0.025246
-0.181548 0.419463 0.310048 0.439070 0.890988 0.115268 0.579472 0.365264
-0.181738 0.356655 0.385156 0.365154 0.520707 0.771661 0.639569 0.392860
-0.260969 0.410659 0.208309 0.183508 0.849300 -0.494980 0.477201 0.361119
-0.082608 0.335246 0.212621 0.686972 0.625446 -0.369945 0.693981 0.150197
-0.126327 0.353322 0.117299 0.451155 0.739525 -0.499527 0.693822 0.237100
-0.185628 0.295834 0.043443 0.143040 0.560564 -0.815638 0.668575 0.311882
4 0 1 2 3
4 4 5 6 7
4 8 9 10 11
4 12 13 14 15
4 16 17 18 19
4 20 21 22 23
4 24 25 26 27
4 28 29 30 31
4 32 33 34 35
4 36 37 38 39
4 40 41 42 43
4 44 45 46 47
4 48 49 50 51
4 52 53 54 55
4 56 57 58 59
4 60 61 62 63
4 64 65 66 67
4 68 69 70 71
4 72 73 74 23
4 75 76 77 78
4 79 80 81 82
4 83 84 74 19
4 85 86 87 88
4 89 90 91 92
4 25 0 3 26
4 30 35 0 25
4 35 34 1 0
4 37 4 7 38
4 42 47 4 37
4 47 46 5 4
4 93 8 11 94
4 54 95 96 49
4 95 97 98 96
4 99 12 15 100
4 101 102 103 104
4 105 106 13 12
4 73 16 19 74
4 77 82 107 108
4 82 81 109 107
4 84 20 23 74
4 87 92 20 84
4 110 111 112 113
4 21 114 115 22
4 91 116 114 21
4 31 30 25 24
4 90 117 116 91
4 118 119 28 120
4 119 121 29 28
4 29 32 35 30
4 121 122 32 29
4 122 123 33 32
4 9 124 69 10
4 125 43 36 126
4 43 42 37 36
4 127 40 43 125
4 128 129 40 127
4 129 130 41 40
4 41 44 47 42
4 130 131 44 41
4 131 132 45 44
4 133 48 51 134
4 135 55 48 133
4 55 54 49 48
4 136 52 55 135
4 137 138 52 136
4 138 139 53 52
4 53 140 95 54
4 139 141 140 53
4 141 142 143 140
4 1 60 63 2
4 34 144 60 1
4 67 66 145 146
4 33 147 144 34
4 123 148 147 33
4 149 94 65 64
4 65 68 71 66
4 94 11 68 65
4 11 10 69 68
4 115 72 23 22
4 26 150 151 27
4 78 77 108 152
4 3 153 150 26
4 2 63 153 3
4 154 100 76 75
4 76 79 82 77
4 100 15 79 76
4 15 14 80 79
4 155 83 19 18
4 156 88 83 155
4 88 87 84 83
4 129 157 158 130
4 142 141 159 160
4 141 139 161 159
4 86 89 92 87
4 162 163 89 86
4 163 164 90 89
